<mxfile host="Electron" agent="Mozilla/5.0 (Windows NT 10.0; Win64; x64) AppleWebKit/537.36 (KHTML, like Gecko) draw.io/24.7.17 Chrome/128.0.6613.36 Electron/32.0.1 Safari/537.36" version="24.7.17">
  <diagram name="Страница — 1" id="rfoSVre1Z1UYV8LfSvAS">
    <mxGraphModel dx="1594" dy="439" grid="1" gridSize="10" guides="1" tooltips="1" connect="1" arrows="1" fold="1" page="1" pageScale="1" pageWidth="827" pageHeight="1169" math="0" shadow="0">
      <root>
        <mxCell id="0" />
        <mxCell id="1" parent="0" />
        <mxCell id="3SaLkwx1OlIngapf8OXm-1" value="Начало" style="ellipse;whiteSpace=wrap;html=1;" vertex="1" parent="1">
          <mxGeometry x="280" y="10" width="110" height="60" as="geometry" />
        </mxCell>
        <mxCell id="3SaLkwx1OlIngapf8OXm-2" value="" style="endArrow=none;html=1;rounded=0;entryX=0.5;entryY=1;entryDx=0;entryDy=0;" edge="1" parent="1" target="3SaLkwx1OlIngapf8OXm-1">
          <mxGeometry width="50" height="50" relative="1" as="geometry">
            <mxPoint x="335" y="180" as="sourcePoint" />
            <mxPoint x="340" y="80" as="targetPoint" />
          </mxGeometry>
        </mxCell>
        <mxCell id="3SaLkwx1OlIngapf8OXm-3" value="" style="endArrow=none;dashed=1;html=1;rounded=0;" edge="1" parent="1">
          <mxGeometry width="50" height="50" relative="1" as="geometry">
            <mxPoint x="340" y="120" as="sourcePoint" />
            <mxPoint x="400" y="120" as="targetPoint" />
          </mxGeometry>
        </mxCell>
        <mxCell id="3SaLkwx1OlIngapf8OXm-4" value="" style="endArrow=none;html=1;rounded=0;" edge="1" parent="1">
          <mxGeometry width="50" height="50" relative="1" as="geometry">
            <mxPoint x="400" y="160" as="sourcePoint" />
            <mxPoint x="400" y="80" as="targetPoint" />
          </mxGeometry>
        </mxCell>
        <mxCell id="3SaLkwx1OlIngapf8OXm-5" value="&lt;div&gt;#include &amp;lt;iostream&amp;gt;&lt;/div&gt;&lt;div&gt;#include &amp;lt;clocale&amp;gt;&lt;/div&gt;&lt;div&gt;using namespace std;&lt;/div&gt;" style="text;html=1;align=center;verticalAlign=middle;whiteSpace=wrap;rounded=0;" vertex="1" parent="1">
          <mxGeometry x="414" y="90" width="136" height="70" as="geometry" />
        </mxCell>
        <mxCell id="3SaLkwx1OlIngapf8OXm-6" value="" style="endArrow=none;html=1;rounded=0;entryX=0.75;entryY=1;entryDx=0;entryDy=0;" edge="1" parent="1" target="3SaLkwx1OlIngapf8OXm-5">
          <mxGeometry width="50" height="50" relative="1" as="geometry">
            <mxPoint x="400" y="160" as="sourcePoint" />
            <mxPoint x="410" y="90" as="targetPoint" />
          </mxGeometry>
        </mxCell>
        <mxCell id="3SaLkwx1OlIngapf8OXm-7" value="" style="endArrow=none;html=1;rounded=0;" edge="1" parent="1">
          <mxGeometry width="50" height="50" relative="1" as="geometry">
            <mxPoint x="510" y="80" as="sourcePoint" />
            <mxPoint x="400" y="80" as="targetPoint" />
          </mxGeometry>
        </mxCell>
        <mxCell id="3SaLkwx1OlIngapf8OXm-28" style="edgeStyle=orthogonalEdgeStyle;rounded=0;orthogonalLoop=1;jettySize=auto;html=1;entryX=0.5;entryY=0;entryDx=0;entryDy=0;" edge="1" parent="1" source="3SaLkwx1OlIngapf8OXm-8" target="3SaLkwx1OlIngapf8OXm-10">
          <mxGeometry relative="1" as="geometry" />
        </mxCell>
        <mxCell id="3SaLkwx1OlIngapf8OXm-8" value="&lt;div&gt;int main()&lt;/div&gt;" style="shape=process;whiteSpace=wrap;html=1;backgroundOutline=1;" vertex="1" parent="1">
          <mxGeometry x="290" y="170" width="90" height="30" as="geometry" />
        </mxCell>
        <mxCell id="3SaLkwx1OlIngapf8OXm-9" value="{" style="text;html=1;align=center;verticalAlign=middle;whiteSpace=wrap;rounded=0;" vertex="1" parent="1">
          <mxGeometry x="290" y="200" width="26" height="30" as="geometry" />
        </mxCell>
        <mxCell id="3SaLkwx1OlIngapf8OXm-29" style="edgeStyle=orthogonalEdgeStyle;rounded=0;orthogonalLoop=1;jettySize=auto;html=1;" edge="1" parent="1" source="3SaLkwx1OlIngapf8OXm-10" target="3SaLkwx1OlIngapf8OXm-11">
          <mxGeometry relative="1" as="geometry" />
        </mxCell>
        <mxCell id="3SaLkwx1OlIngapf8OXm-10" value="setlocale(LC_ALL, &quot;rus&quot;);" style="rounded=0;whiteSpace=wrap;html=1;" vertex="1" parent="1">
          <mxGeometry x="255" y="240" width="160" height="30" as="geometry" />
        </mxCell>
        <mxCell id="3SaLkwx1OlIngapf8OXm-30" style="edgeStyle=orthogonalEdgeStyle;rounded=0;orthogonalLoop=1;jettySize=auto;html=1;" edge="1" parent="1" source="3SaLkwx1OlIngapf8OXm-11" target="3SaLkwx1OlIngapf8OXm-13">
          <mxGeometry relative="1" as="geometry" />
        </mxCell>
        <mxCell id="3SaLkwx1OlIngapf8OXm-11" value="int a, b, maxim;" style="rounded=0;whiteSpace=wrap;html=1;" vertex="1" parent="1">
          <mxGeometry x="280" y="300" width="110" height="30" as="geometry" />
        </mxCell>
        <mxCell id="3SaLkwx1OlIngapf8OXm-32" style="edgeStyle=orthogonalEdgeStyle;rounded=0;orthogonalLoop=1;jettySize=auto;html=1;" edge="1" parent="1" source="3SaLkwx1OlIngapf8OXm-12" target="3SaLkwx1OlIngapf8OXm-14">
          <mxGeometry relative="1" as="geometry" />
        </mxCell>
        <mxCell id="3SaLkwx1OlIngapf8OXm-12" value="cin &amp;gt;&amp;gt; a &amp;gt;&amp;gt; b;" style="shape=parallelogram;perimeter=parallelogramPerimeter;whiteSpace=wrap;html=1;fixedSize=1;" vertex="1" parent="1">
          <mxGeometry x="275" y="420" width="120" height="30" as="geometry" />
        </mxCell>
        <mxCell id="3SaLkwx1OlIngapf8OXm-31" style="edgeStyle=orthogonalEdgeStyle;rounded=0;orthogonalLoop=1;jettySize=auto;html=1;" edge="1" parent="1" source="3SaLkwx1OlIngapf8OXm-13" target="3SaLkwx1OlIngapf8OXm-12">
          <mxGeometry relative="1" as="geometry" />
        </mxCell>
        <mxCell id="3SaLkwx1OlIngapf8OXm-13" value="cout &amp;lt;&amp;lt; &quot;Введиде значения a и b: &quot;;" style="shape=parallelogram;perimeter=parallelogramPerimeter;whiteSpace=wrap;html=1;fixedSize=1;" vertex="1" parent="1">
          <mxGeometry x="220" y="360" width="230" height="30" as="geometry" />
        </mxCell>
        <mxCell id="3SaLkwx1OlIngapf8OXm-33" style="edgeStyle=orthogonalEdgeStyle;rounded=0;orthogonalLoop=1;jettySize=auto;html=1;entryX=0.5;entryY=0;entryDx=0;entryDy=0;" edge="1" parent="1" source="3SaLkwx1OlIngapf8OXm-14" target="3SaLkwx1OlIngapf8OXm-15">
          <mxGeometry relative="1" as="geometry" />
        </mxCell>
        <mxCell id="3SaLkwx1OlIngapf8OXm-14" value="int* ptra = &amp;amp;a;" style="rounded=0;whiteSpace=wrap;html=1;" vertex="1" parent="1">
          <mxGeometry x="290" y="480" width="90" height="30" as="geometry" />
        </mxCell>
        <mxCell id="3SaLkwx1OlIngapf8OXm-34" style="edgeStyle=orthogonalEdgeStyle;rounded=0;orthogonalLoop=1;jettySize=auto;html=1;entryX=0.5;entryY=0;entryDx=0;entryDy=0;" edge="1" parent="1" source="3SaLkwx1OlIngapf8OXm-15" target="3SaLkwx1OlIngapf8OXm-16">
          <mxGeometry relative="1" as="geometry" />
        </mxCell>
        <mxCell id="3SaLkwx1OlIngapf8OXm-15" value="int* ptrb = &amp;amp;b;" style="rounded=0;whiteSpace=wrap;html=1;" vertex="1" parent="1">
          <mxGeometry x="290" y="540" width="90" height="30" as="geometry" />
        </mxCell>
        <mxCell id="3SaLkwx1OlIngapf8OXm-35" style="edgeStyle=orthogonalEdgeStyle;rounded=0;orthogonalLoop=1;jettySize=auto;html=1;entryX=0.5;entryY=0;entryDx=0;entryDy=0;" edge="1" parent="1" source="3SaLkwx1OlIngapf8OXm-16" target="3SaLkwx1OlIngapf8OXm-19">
          <mxGeometry relative="1" as="geometry" />
        </mxCell>
        <mxCell id="3SaLkwx1OlIngapf8OXm-40" style="edgeStyle=orthogonalEdgeStyle;rounded=0;orthogonalLoop=1;jettySize=auto;html=1;entryX=0.5;entryY=0;entryDx=0;entryDy=0;" edge="1" parent="1" source="3SaLkwx1OlIngapf8OXm-16" target="3SaLkwx1OlIngapf8OXm-17">
          <mxGeometry relative="1" as="geometry" />
        </mxCell>
        <mxCell id="3SaLkwx1OlIngapf8OXm-16" value="if (a &amp;gt; b)" style="rhombus;whiteSpace=wrap;html=1;" vertex="1" parent="1">
          <mxGeometry x="287.5" y="610" width="95" height="60" as="geometry" />
        </mxCell>
        <mxCell id="3SaLkwx1OlIngapf8OXm-43" style="edgeStyle=orthogonalEdgeStyle;rounded=0;orthogonalLoop=1;jettySize=auto;html=1;entryX=0.5;entryY=0;entryDx=0;entryDy=0;" edge="1" parent="1" source="3SaLkwx1OlIngapf8OXm-17" target="3SaLkwx1OlIngapf8OXm-23">
          <mxGeometry relative="1" as="geometry" />
        </mxCell>
        <mxCell id="3SaLkwx1OlIngapf8OXm-44" style="edgeStyle=orthogonalEdgeStyle;rounded=0;orthogonalLoop=1;jettySize=auto;html=1;entryX=0.5;entryY=0;entryDx=0;entryDy=0;" edge="1" parent="1" source="3SaLkwx1OlIngapf8OXm-17" target="3SaLkwx1OlIngapf8OXm-25">
          <mxGeometry relative="1" as="geometry" />
        </mxCell>
        <mxCell id="3SaLkwx1OlIngapf8OXm-17" value="&amp;nbsp;if (b &amp;gt; a)" style="rhombus;whiteSpace=wrap;html=1;" vertex="1" parent="1">
          <mxGeometry x="629" y="730" width="90" height="60" as="geometry" />
        </mxCell>
        <mxCell id="3SaLkwx1OlIngapf8OXm-18" value="}" style="text;html=1;align=center;verticalAlign=middle;whiteSpace=wrap;rounded=0;" vertex="1" parent="1">
          <mxGeometry x="140" y="780" width="40" height="30" as="geometry" />
        </mxCell>
        <mxCell id="3SaLkwx1OlIngapf8OXm-36" style="edgeStyle=orthogonalEdgeStyle;rounded=0;orthogonalLoop=1;jettySize=auto;html=1;entryX=0.5;entryY=0;entryDx=0;entryDy=0;" edge="1" parent="1" source="3SaLkwx1OlIngapf8OXm-19" target="3SaLkwx1OlIngapf8OXm-20">
          <mxGeometry relative="1" as="geometry" />
        </mxCell>
        <mxCell id="3SaLkwx1OlIngapf8OXm-19" value="maxim = *ptra;" style="rounded=0;whiteSpace=wrap;html=1;" vertex="1" parent="1">
          <mxGeometry x="70" y="690" width="90" height="30" as="geometry" />
        </mxCell>
        <mxCell id="3SaLkwx1OlIngapf8OXm-37" style="edgeStyle=orthogonalEdgeStyle;rounded=0;orthogonalLoop=1;jettySize=auto;html=1;" edge="1" parent="1" source="3SaLkwx1OlIngapf8OXm-20">
          <mxGeometry relative="1" as="geometry">
            <mxPoint x="350" y="1120" as="targetPoint" />
            <Array as="points">
              <mxPoint x="115" y="1080" />
              <mxPoint x="350" y="1080" />
            </Array>
          </mxGeometry>
        </mxCell>
        <mxCell id="3SaLkwx1OlIngapf8OXm-20" value="cout &amp;lt;&amp;lt; &quot;Максимальное значение = &quot; &amp;lt;&amp;lt; maxim &amp;lt;&amp;lt; &quot;, а его адрес: &quot; &amp;lt;&amp;lt; ptra &amp;lt;&amp;lt; endl;" style="shape=parallelogram;perimeter=parallelogramPerimeter;whiteSpace=wrap;html=1;fixedSize=1;" vertex="1" parent="1">
          <mxGeometry x="-140" y="750" width="510" height="20" as="geometry" />
        </mxCell>
        <mxCell id="3SaLkwx1OlIngapf8OXm-21" value="{" style="text;html=1;align=center;verticalAlign=middle;whiteSpace=wrap;rounded=0;" vertex="1" parent="1">
          <mxGeometry x="80" y="660" width="26" height="30" as="geometry" />
        </mxCell>
        <mxCell id="3SaLkwx1OlIngapf8OXm-22" value="{" style="text;html=1;align=center;verticalAlign=middle;whiteSpace=wrap;rounded=0;" vertex="1" parent="1">
          <mxGeometry x="480" y="780" width="26" height="30" as="geometry" />
        </mxCell>
        <mxCell id="3SaLkwx1OlIngapf8OXm-46" style="edgeStyle=orthogonalEdgeStyle;rounded=0;orthogonalLoop=1;jettySize=auto;html=1;" edge="1" parent="1" source="3SaLkwx1OlIngapf8OXm-23" target="3SaLkwx1OlIngapf8OXm-24">
          <mxGeometry relative="1" as="geometry" />
        </mxCell>
        <mxCell id="3SaLkwx1OlIngapf8OXm-23" value="maxim = *ptrb;" style="rounded=0;whiteSpace=wrap;html=1;" vertex="1" parent="1">
          <mxGeometry x="480" y="820" width="90" height="30" as="geometry" />
        </mxCell>
        <mxCell id="3SaLkwx1OlIngapf8OXm-51" style="edgeStyle=orthogonalEdgeStyle;rounded=0;orthogonalLoop=1;jettySize=auto;html=1;" edge="1" parent="1" source="3SaLkwx1OlIngapf8OXm-24">
          <mxGeometry relative="1" as="geometry">
            <mxPoint x="350" y="1080" as="targetPoint" />
            <Array as="points">
              <mxPoint x="525" y="1000" />
              <mxPoint x="720" y="1000" />
            </Array>
          </mxGeometry>
        </mxCell>
        <mxCell id="3SaLkwx1OlIngapf8OXm-24" value="cout &amp;lt;&amp;lt; &quot;Максимальное значение = &quot; &amp;lt;&amp;lt; maxim &amp;lt;&amp;lt; &quot;, а его адрес: &quot; &amp;lt;&amp;lt; ptrb &amp;lt;&amp;lt; endl;" style="shape=parallelogram;perimeter=parallelogramPerimeter;whiteSpace=wrap;html=1;fixedSize=1;" vertex="1" parent="1">
          <mxGeometry x="280" y="880" width="490" height="20" as="geometry" />
        </mxCell>
        <mxCell id="3SaLkwx1OlIngapf8OXm-45" style="edgeStyle=orthogonalEdgeStyle;rounded=0;orthogonalLoop=1;jettySize=auto;html=1;entryX=0.5;entryY=0;entryDx=0;entryDy=0;" edge="1" parent="1" source="3SaLkwx1OlIngapf8OXm-25" target="3SaLkwx1OlIngapf8OXm-26">
          <mxGeometry relative="1" as="geometry" />
        </mxCell>
        <mxCell id="3SaLkwx1OlIngapf8OXm-25" value="maxim = *ptrb;" style="rounded=0;whiteSpace=wrap;html=1;" vertex="1" parent="1">
          <mxGeometry x="860.5" y="830" width="100" height="30" as="geometry" />
        </mxCell>
        <mxCell id="3SaLkwx1OlIngapf8OXm-52" style="edgeStyle=orthogonalEdgeStyle;rounded=0;orthogonalLoop=1;jettySize=auto;html=1;" edge="1" parent="1" source="3SaLkwx1OlIngapf8OXm-26">
          <mxGeometry relative="1" as="geometry">
            <mxPoint x="720" y="1010" as="targetPoint" />
            <Array as="points">
              <mxPoint x="910" y="1000" />
              <mxPoint x="720" y="1000" />
            </Array>
          </mxGeometry>
        </mxCell>
        <mxCell id="3SaLkwx1OlIngapf8OXm-26" value="cout &amp;lt;&amp;lt; &quot;Значения одинаковы, поэтому максимальное значение = &quot; &amp;lt;&amp;lt; maxim &amp;lt;&amp;lt; &quot; , и адрес: &quot; &amp;lt;&amp;lt; ptrb &amp;lt;&amp;lt; endl;" style="shape=parallelogram;perimeter=parallelogramPerimeter;whiteSpace=wrap;html=1;fixedSize=1;" vertex="1" parent="1">
          <mxGeometry x="580" y="930" width="661" height="20" as="geometry" />
        </mxCell>
        <mxCell id="3SaLkwx1OlIngapf8OXm-27" style="edgeStyle=orthogonalEdgeStyle;rounded=0;orthogonalLoop=1;jettySize=auto;html=1;exitX=0.5;exitY=1;exitDx=0;exitDy=0;" edge="1" parent="1" source="3SaLkwx1OlIngapf8OXm-20" target="3SaLkwx1OlIngapf8OXm-20">
          <mxGeometry relative="1" as="geometry" />
        </mxCell>
        <mxCell id="3SaLkwx1OlIngapf8OXm-38" value="1" style="text;html=1;align=center;verticalAlign=middle;whiteSpace=wrap;rounded=0;" vertex="1" parent="1">
          <mxGeometry x="240" y="610" width="40" height="20" as="geometry" />
        </mxCell>
        <mxCell id="3SaLkwx1OlIngapf8OXm-39" value="1" style="text;html=1;align=center;verticalAlign=middle;whiteSpace=wrap;rounded=0;" vertex="1" parent="1">
          <mxGeometry x="540" y="740" width="40" height="20" as="geometry" />
        </mxCell>
        <mxCell id="3SaLkwx1OlIngapf8OXm-41" value="0" style="text;html=1;align=center;verticalAlign=middle;whiteSpace=wrap;rounded=0;" vertex="1" parent="1">
          <mxGeometry x="770" y="730" width="40" height="30" as="geometry" />
        </mxCell>
        <mxCell id="3SaLkwx1OlIngapf8OXm-42" value="0" style="text;html=1;align=center;verticalAlign=middle;whiteSpace=wrap;rounded=0;" vertex="1" parent="1">
          <mxGeometry x="395" y="610" width="30" height="20" as="geometry" />
        </mxCell>
        <mxCell id="3SaLkwx1OlIngapf8OXm-47" value="}" style="text;html=1;align=center;verticalAlign=middle;whiteSpace=wrap;rounded=0;" vertex="1" parent="1">
          <mxGeometry x="550" y="900" width="40" height="30" as="geometry" />
        </mxCell>
        <mxCell id="3SaLkwx1OlIngapf8OXm-48" value="}" style="text;html=1;align=center;verticalAlign=middle;whiteSpace=wrap;rounded=0;" vertex="1" parent="1">
          <mxGeometry x="940" y="960" width="40" height="30" as="geometry" />
        </mxCell>
        <mxCell id="3SaLkwx1OlIngapf8OXm-49" value="{" style="text;html=1;align=center;verticalAlign=middle;whiteSpace=wrap;rounded=0;" vertex="1" parent="1">
          <mxGeometry x="860.5" y="790" width="26" height="30" as="geometry" />
        </mxCell>
        <mxCell id="3SaLkwx1OlIngapf8OXm-50" value="{" style="text;html=1;align=center;verticalAlign=middle;whiteSpace=wrap;rounded=0;" vertex="1" parent="1">
          <mxGeometry x="640" y="670" width="26" height="30" as="geometry" />
        </mxCell>
        <mxCell id="3SaLkwx1OlIngapf8OXm-53" value="}" style="text;html=1;align=center;verticalAlign=middle;whiteSpace=wrap;rounded=0;" vertex="1" parent="1">
          <mxGeometry x="740" y="1010" width="40" height="30" as="geometry" />
        </mxCell>
        <mxCell id="3SaLkwx1OlIngapf8OXm-54" value="&amp;nbsp;return 0;" style="ellipse;whiteSpace=wrap;html=1;" vertex="1" parent="1">
          <mxGeometry x="300" y="1120" width="100" height="60" as="geometry" />
        </mxCell>
        <mxCell id="3SaLkwx1OlIngapf8OXm-55" value="}" style="text;html=1;align=center;verticalAlign=middle;whiteSpace=wrap;rounded=0;" vertex="1" parent="1">
          <mxGeometry x="415" y="1135" width="40" height="30" as="geometry" />
        </mxCell>
      </root>
    </mxGraphModel>
  </diagram>
</mxfile>
